<svg xmlns="http://www.w3.org/2000/svg" width="510" height="511" viewBox="0 0 310 311" version="1.1"><path d="M 116.585 77.575 C 112.232 78.306, 105.482 79.870, 101.585 81.048 C 97.688 82.227, 91.295 84.667, 87.378 86.471 C 83.461 88.275, 77.386 91.687, 73.878 94.053 C 70.370 96.419, 64.317 101.538, 60.428 105.428 C 56.538 109.317, 51.445 115.332, 49.110 118.794 C 46.776 122.256, 43.110 128.781, 40.964 133.294 C 38.818 137.807, 35.858 146, 34.388 151.500 C 32.037 160.291, 31.707 163.434, 31.653 177.500 C 31.601 191.191, 31.925 194.727, 33.893 202 C 35.159 206.675, 38.178 214.582, 40.603 219.571 C 43.046 224.598, 47.633 231.757, 50.891 235.628 C 54.125 239.469, 60.085 245.141, 64.135 248.232 C 68.186 251.323, 75.100 255.625, 79.500 257.793 C 83.900 259.960, 90.289 262.685, 93.697 263.847 C 97.106 265.010, 103.406 266.743, 107.697 267.700 C 113.682 269.033, 120.161 269.438, 135.500 269.438 C 150.577 269.438, 157.346 269.025, 163 267.760 C 167.125 266.837, 173.206 265.216, 176.514 264.158 C 179.821 263.100, 185.508 260.883, 189.151 259.231 C 192.794 257.579, 198.638 254.289, 202.137 251.919 C 205.637 249.549, 210.917 245.335, 213.871 242.555 C 216.825 239.775, 221.159 234.800, 223.503 231.500 C 225.847 228.200, 229.139 222.756, 230.820 219.402 C 232.500 216.048, 234.778 210.423, 235.882 206.902 C 236.986 203.381, 238.428 196.994, 239.088 192.709 C 239.834 187.867, 240.061 180.299, 239.690 172.709 C 239.362 165.994, 238.794 159.487, 238.430 158.250 C 237.787 156.070, 237.981 156, 244.673 156 C 248.472 156, 254.262 155.305, 257.540 154.455 C 260.818 153.606, 266.425 151.174, 270 149.050 C 273.575 146.927, 279.425 142.220, 283 138.591 C 286.575 134.961, 289.500 131.503, 289.500 130.904 C 289.500 130.306, 286.848 128.738, 283.607 127.419 C 280.366 126.101, 274.422 124.342, 270.399 123.511 C 266.376 122.680, 261.715 122, 260.042 122 C 258.369 122, 257 121.723, 257 121.384 C 257 121.045, 258.587 118.606, 260.526 115.964 C 262.466 113.322, 265.371 108.253, 266.982 104.701 C 268.592 101.148, 270.441 96.133, 271.090 93.556 C 271.922 90.253, 271.957 88.557, 271.209 87.809 C 270.461 87.061, 267.692 87.095, 261.824 87.922 C 257.246 88.568, 250.680 90.014, 247.234 91.135 C 243.787 92.256, 238.214 95.013, 234.848 97.260 C 231.482 99.508, 226.693 103.969, 224.204 107.173 C 221.715 110.378, 219.327 113, 218.896 113 C 218.466 113, 215.730 110.480, 212.818 107.401 C 209.905 104.321, 204.592 99.599, 201.011 96.908 C 197.430 94.216, 191.546 90.455, 187.936 88.550 C 184.326 86.645, 177.339 83.735, 172.409 82.084 C 167.479 80.432, 159.182 78.389, 153.973 77.544 C 148.763 76.699, 140 76.061, 134.500 76.126 C 129 76.191, 120.938 76.843, 116.585 77.575 M 116.500 141.574 C 114.850 141.796, 110.350 142.464, 106.500 143.060 C 102.650 143.655, 96.575 145.073, 93 146.211 C 89.425 147.349, 83.840 149.610, 80.589 151.236 C 77.338 152.861, 72.321 156.420, 69.441 159.144 C 66.268 162.145, 63.323 166.146, 61.967 169.298 C 60.737 172.159, 59.510 177.232, 59.242 180.572 C 58.916 184.639, 59.318 188.583, 60.461 192.513 C 61.399 195.741, 63.519 200.347, 65.171 202.748 C 66.823 205.149, 69.982 208.424, 72.192 210.024 C 74.402 211.625, 78.751 213.926, 81.855 215.138 C 86.542 216.967, 89.536 217.344, 99.500 217.359 C 107.553 217.371, 114.062 216.786, 119.290 215.579 C 125.248 214.204, 129.599 213.901, 137.790 214.289 C 143.680 214.568, 152.550 215.569, 157.500 216.513 C 163.796 217.713, 169.204 218.071, 175.500 217.702 C 181.061 217.377, 186.658 216.365, 190.147 215.054 C 193.253 213.888, 197.837 211.135, 200.333 208.938 C 202.830 206.740, 205.808 203.428, 206.952 201.577 C 208.096 199.727, 209.695 196.027, 210.505 193.356 C 211.315 190.685, 211.983 185.917, 211.989 182.761 C 211.995 179.472, 211.170 174.836, 210.055 171.903 C 208.986 169.088, 207.130 165.371, 205.931 163.642 C 204.733 161.914, 201.673 158.813, 199.132 156.752 C 196.591 154.690, 192.236 151.926, 189.455 150.609 C 186.674 149.292, 182.289 147.498, 179.711 146.623 C 177.132 145.748, 171.755 144.310, 167.761 143.428 C 162.792 142.330, 154.030 141.721, 140 141.498 C 128.725 141.318, 118.150 141.352, 116.500 141.574 M 76.223 167.557 C 74.851 168.517, 74.006 170.145, 74.015 171.807 C 74.024 173.288, 74.361 175.002, 74.765 175.616 C 75.169 176.229, 77.326 177.657, 79.558 178.788 C 83.339 180.704, 83.588 181.090, 83.198 184.429 C 82.968 186.400, 83.076 189.594, 83.439 191.528 C 83.802 193.461, 85.449 196.581, 87.099 198.460 C 88.750 200.340, 91.652 202.390, 93.550 203.016 C 96.142 203.872, 97.873 203.867, 100.511 202.996 C 102.442 202.359, 105.141 200.371, 106.508 198.578 C 107.900 196.753, 109.277 193.261, 109.635 190.644 C 110.181 186.665, 110.665 185.877, 112.888 185.350 C 114.325 185.010, 116.287 184.047, 117.250 183.211 C 118.213 182.374, 119 180.735, 119 179.568 C 119 178.400, 118.299 176.445, 117.443 175.223 C 116.388 173.717, 114.857 172.999, 112.693 172.997 C 110.937 172.995, 105.497 172.293, 100.605 171.438 C 95.713 170.582, 89.413 169.009, 86.605 167.941 C 83.797 166.874, 80.813 166.001, 79.973 166.001 C 79.132 166, 77.445 166.701, 76.223 167.557 M 182.031 168.556 C 178.473 169.807, 171.048 171.386, 165.531 172.065 C 159.661 172.787, 154.774 173.924, 153.750 174.805 C 152.787 175.633, 152 177.520, 152 179 C 152 180.480, 152.787 182.374, 153.750 183.211 C 154.713 184.047, 156.738 185.025, 158.250 185.385 C 160.543 185.929, 161.003 186.575, 161.016 189.269 C 161.025 191.046, 162.042 194.300, 163.275 196.500 C 164.660 198.971, 166.985 201.218, 169.356 202.379 C 172.615 203.974, 173.771 204.086, 177.005 203.117 C 179.100 202.489, 182.176 200.425, 183.840 198.530 C 185.800 196.297, 187.104 193.490, 187.544 190.555 C 187.918 188.064, 187.935 184.877, 187.583 183.474 C 187.028 181.263, 187.401 180.730, 190.372 179.489 C 192.258 178.701, 194.521 177.337, 195.400 176.457 C 196.280 175.577, 197 173.609, 197 172.084 C 197 170.558, 196.177 168.565, 195.171 167.655 C 194.165 166.745, 192.253 166.063, 190.921 166.140 C 189.590 166.218, 185.589 167.304, 182.031 168.556" stroke="none" fill="#26262c" fill-rule="evenodd"/><path d="M 0 155.503 C 0 311.006, 0 311.006, 155.250 310.753 C 310.500 310.500, 310.500 310.500, 310.753 155.250 C 311.006 0, 311.006 0, 155.503 0 C 0 0, 0 0, 0 155.503 M 0.488 156 C 0.488 241.525, 0.606 276.512, 0.750 233.750 C 0.894 190.988, 0.894 121.013, 0.750 78.250 C 0.606 35.487, 0.488 70.475, 0.488 156 M 116.585 77.575 C 112.232 78.306, 105.482 79.870, 101.585 81.048 C 97.688 82.227, 91.295 84.667, 87.378 86.471 C 83.461 88.275, 77.386 91.687, 73.878 94.053 C 70.370 96.419, 64.317 101.538, 60.428 105.428 C 56.538 109.317, 51.445 115.332, 49.110 118.794 C 46.776 122.256, 43.110 128.781, 40.964 133.294 C 38.818 137.807, 35.858 146, 34.388 151.500 C 32.037 160.291, 31.707 163.434, 31.653 177.500 C 31.601 191.191, 31.925 194.727, 33.893 202 C 35.159 206.675, 38.178 214.582, 40.603 219.571 C 43.046 224.598, 47.633 231.757, 50.891 235.628 C 54.125 239.469, 60.085 245.141, 64.135 248.232 C 68.186 251.323, 75.100 255.625, 79.500 257.793 C 83.900 259.960, 90.289 262.685, 93.697 263.847 C 97.106 265.010, 103.406 266.743, 107.697 267.700 C 113.682 269.033, 120.161 269.438, 135.500 269.438 C 150.577 269.438, 157.346 269.025, 163 267.760 C 167.125 266.837, 173.206 265.216, 176.514 264.158 C 179.821 263.100, 185.508 260.883, 189.151 259.231 C 192.794 257.579, 198.638 254.289, 202.137 251.919 C 205.637 249.549, 210.917 245.335, 213.871 242.555 C 216.825 239.775, 221.159 234.800, 223.503 231.500 C 225.847 228.200, 229.139 222.756, 230.820 219.402 C 232.500 216.048, 234.778 210.423, 235.882 206.902 C 236.986 203.381, 238.428 196.994, 239.088 192.709 C 239.834 187.867, 240.061 180.299, 239.690 172.709 C 239.362 165.994, 238.794 159.487, 238.430 158.250 C 237.787 156.070, 237.981 156, 244.673 156 C 248.472 156, 254.262 155.305, 257.540 154.455 C 260.818 153.606, 266.425 151.174, 270 149.050 C 273.575 146.927, 279.425 142.220, 283 138.591 C 286.575 134.961, 289.500 131.503, 289.500 130.904 C 289.500 130.306, 286.848 128.738, 283.607 127.419 C 280.366 126.101, 274.422 124.342, 270.399 123.511 C 266.376 122.680, 261.715 122, 260.042 122 C 258.369 122, 257 121.723, 257 121.384 C 257 121.045, 258.587 118.606, 260.526 115.964 C 262.466 113.322, 265.371 108.253, 266.982 104.701 C 268.592 101.148, 270.441 96.133, 271.090 93.556 C 271.922 90.253, 271.957 88.557, 271.209 87.809 C 270.461 87.061, 267.692 87.095, 261.824 87.922 C 257.246 88.568, 250.680 90.014, 247.234 91.135 C 243.787 92.256, 238.214 95.013, 234.848 97.260 C 231.482 99.508, 226.693 103.969, 224.204 107.173 C 221.715 110.378, 219.327 113, 218.896 113 C 218.466 113, 215.730 110.480, 212.818 107.401 C 209.905 104.321, 204.592 99.599, 201.011 96.908 C 197.430 94.216, 191.546 90.455, 187.936 88.550 C 184.326 86.645, 177.339 83.735, 172.409 82.084 C 167.479 80.432, 159.182 78.389, 153.973 77.544 C 148.763 76.699, 140 76.061, 134.500 76.126 C 129 76.191, 120.938 76.843, 116.585 77.575 M 116.500 141.574 C 114.850 141.796, 110.350 142.464, 106.500 143.060 C 102.650 143.655, 96.575 145.073, 93 146.211 C 89.425 147.349, 83.840 149.610, 80.589 151.236 C 77.338 152.861, 72.321 156.420, 69.441 159.144 C 66.268 162.145, 63.323 166.146, 61.967 169.298 C 60.737 172.159, 59.510 177.232, 59.242 180.572 C 58.916 184.639, 59.318 188.583, 60.461 192.513 C 61.399 195.741, 63.519 200.347, 65.171 202.748 C 66.823 205.149, 69.982 208.424, 72.192 210.024 C 74.402 211.625, 78.751 213.926, 81.855 215.138 C 86.542 216.967, 89.536 217.344, 99.500 217.359 C 107.553 217.371, 114.062 216.786, 119.290 215.579 C 125.248 214.204, 129.599 213.901, 137.790 214.289 C 143.680 214.568, 152.550 215.569, 157.500 216.513 C 163.796 217.713, 169.204 218.071, 175.500 217.702 C 181.061 217.377, 186.658 216.365, 190.147 215.054 C 193.253 213.888, 197.837 211.135, 200.333 208.938 C 202.830 206.740, 205.808 203.428, 206.952 201.577 C 208.096 199.727, 209.695 196.027, 210.505 193.356 C 211.315 190.685, 211.983 185.917, 211.989 182.761 C 211.995 179.472, 211.170 174.836, 210.055 171.903 C 208.986 169.088, 207.130 165.371, 205.931 163.642 C 204.733 161.914, 201.673 158.813, 199.132 156.752 C 196.591 154.690, 192.236 151.926, 189.455 150.609 C 186.674 149.292, 182.289 147.498, 179.711 146.623 C 177.132 145.748, 171.755 144.310, 167.761 143.428 C 162.792 142.330, 154.030 141.721, 140 141.498 C 128.725 141.318, 118.150 141.352, 116.500 141.574 M 76.223 167.557 C 74.851 168.517, 74.006 170.145, 74.015 171.807 C 74.024 173.288, 74.361 175.002, 74.765 175.616 C 75.169 176.229, 77.326 177.657, 79.558 178.788 C 83.339 180.704, 83.588 181.090, 83.198 184.429 C 82.968 186.400, 83.076 189.594, 83.439 191.528 C 83.802 193.461, 85.449 196.581, 87.099 198.460 C 88.750 200.340, 91.652 202.390, 93.550 203.016 C 96.142 203.872, 97.873 203.867, 100.511 202.996 C 102.442 202.359, 105.141 200.371, 106.508 198.578 C 107.900 196.753, 109.277 193.261, 109.635 190.644 C 110.181 186.665, 110.665 185.877, 112.888 185.350 C 114.325 185.010, 116.287 184.047, 117.250 183.211 C 118.213 182.374, 119 180.735, 119 179.568 C 119 178.400, 118.299 176.445, 117.443 175.223 C 116.388 173.717, 114.857 172.999, 112.693 172.997 C 110.937 172.995, 105.497 172.293, 100.605 171.438 C 95.713 170.582, 89.413 169.009, 86.605 167.941 C 83.797 166.874, 80.813 166.001, 79.973 166.001 C 79.132 166, 77.445 166.701, 76.223 167.557 M 182.031 168.556 C 178.473 169.807, 171.048 171.386, 165.531 172.065 C 159.661 172.787, 154.774 173.924, 153.750 174.805 C 152.787 175.633, 152 177.520, 152 179 C 152 180.480, 152.787 182.374, 153.750 183.211 C 154.713 184.047, 156.738 185.025, 158.250 185.385 C 160.543 185.929, 161.003 186.575, 161.016 189.269 C 161.025 191.046, 162.042 194.300, 163.275 196.500 C 164.660 198.971, 166.985 201.218, 169.356 202.379 C 172.615 203.974, 173.771 204.086, 177.005 203.117 C 179.100 202.489, 182.176 200.425, 183.840 198.530 C 185.800 196.297, 187.104 193.490, 187.544 190.555 C 187.918 188.064, 187.935 184.877, 187.583 183.474 C 187.028 181.263, 187.401 180.730, 190.372 179.489 C 192.258 178.701, 194.521 177.337, 195.400 176.457 C 196.280 175.577, 197 173.609, 197 172.084 C 197 170.558, 196.177 168.565, 195.171 167.655 C 194.165 166.745, 192.253 166.063, 190.921 166.140 C 189.590 166.218, 185.589 167.304, 182.031 168.556" stroke="none" fill="#f9f9f9" fill-rule="evenodd"/></svg>